<?xml version="1.0" standalone="no"?>
<svg xmlns:xlink="http://www.w3.org/1999/xlink" id="wave" style="transform:rotate(270deg); transition: 0.3s" viewBox="0 0 1440 490" version="1.1" xmlns="http://www.w3.org/2000/svg"><defs><linearGradient id="sw-gradient-0" x1="0" x2="0" y1="1" y2="0"><stop stop-color="#ff5e62" offset="0%"/><stop stop-color="#ff5e62" offset="100%"/></linearGradient></defs><path style="transform:translate(0, 0px); opacity:1" fill="url(#sw-gradient-0)" d="M0,196L80,228.7C160,261,320,327,480,302.2C640,278,800,163,960,130.7C1120,98,1280,147,1440,196C1600,245,1760,294,1920,310.3C2080,327,2240,310,2400,294C2560,278,2720,261,2880,220.5C3040,180,3200,114,3360,73.5C3520,33,3680,16,3840,57.2C4000,98,4160,196,4320,236.8C4480,278,4640,261,4800,277.7C4960,294,5120,343,5280,334.8C5440,327,5600,261,5760,228.7C5920,196,6080,196,6240,163.3C6400,131,6560,65,6720,73.5C6880,82,7040,163,7200,171.5C7360,180,7520,114,7680,138.8C7840,163,8000,278,8160,326.7C8320,376,8480,359,8640,334.8C8800,310,8960,278,9120,277.7C9280,278,9440,310,9600,334.8C9760,359,9920,376,10080,392C10240,408,10400,425,10560,375.7C10720,327,10880,212,11040,147C11200,82,11360,65,11440,57.2L11520,49L11520,490L11440,490C11360,490,11200,490,11040,490C10880,490,10720,490,10560,490C10400,490,10240,490,10080,490C9920,490,9760,490,9600,490C9440,490,9280,490,9120,490C8960,490,8800,490,8640,490C8480,490,8320,490,8160,490C8000,490,7840,490,7680,490C7520,490,7360,490,7200,490C7040,490,6880,490,6720,490C6560,490,6400,490,6240,490C6080,490,5920,490,5760,490C5600,490,5440,490,5280,490C5120,490,4960,490,4800,490C4640,490,4480,490,4320,490C4160,490,4000,490,3840,490C3680,490,3520,490,3360,490C3200,490,3040,490,2880,490C2720,490,2560,490,2400,490C2240,490,2080,490,1920,490C1760,490,1600,490,1440,490C1280,490,1120,490,960,490C800,490,640,490,480,490C320,490,160,490,80,490L0,490Z"/></svg>
