<?xml version="1.0" standalone="no"?><svg xmlns="http://www.w3.org/2000/svg" viewBox="0 0 1440 320"><path fill="#ff9966" fill-opacity="1" d="M0,192L17.1,202.7C34.3,213,69,235,103,218.7C137.1,203,171,149,206,128C240,107,274,117,309,138.7C342.9,160,377,192,411,213.3C445.7,235,480,245,514,261.3C548.6,277,583,299,617,288C651.4,277,686,235,720,234.7C754.3,235,789,277,823,298.7C857.1,320,891,320,926,298.7C960,277,994,235,1029,197.3C1062.9,160,1097,128,1131,144C1165.7,160,1200,224,1234,229.3C1268.6,235,1303,181,1337,154.7C1371.4,128,1406,128,1423,128L1440,128L1440,320L1422.9,320C1405.7,320,1371,320,1337,320C1302.9,320,1269,320,1234,320C1200,320,1166,320,1131,320C1097.1,320,1063,320,1029,320C994.3,320,960,320,926,320C891.4,320,857,320,823,320C788.6,320,754,320,720,320C685.7,320,651,320,617,320C582.9,320,549,320,514,320C480,320,446,320,411,320C377.1,320,343,320,309,320C274.3,320,240,320,206,320C171.4,320,137,320,103,320C68.6,320,34,320,17,320L0,320Z"></path></svg>